solid OpenSCAD_Model
  facet normal 0 0 -1
    outer loop
      vertex 15 25.9808 0
      vertex 30 0 0
      vertex 15 -25.9808 0
    endloop
  endfacet
  facet normal 0 -0 -1
    outer loop
      vertex -15 25.9808 0
      vertex -15 -25.9808 0
      vertex -30 0 0
    endloop
  endfacet
  facet normal -0 -0 -1
    outer loop
      vertex 15 25.9808 0
      vertex 15 -25.9808 0
      vertex -15 25.9808 0
    endloop
  endfacet
  facet normal 0 0 -1
    outer loop
      vertex -15 25.9808 0
      vertex 15 -25.9808 0
      vertex -15 -25.9808 0
    endloop
  endfacet
  facet normal 0 0 1
    outer loop
      vertex 15 -25.9808 6.2
      vertex 30 0 6.2
      vertex 15 25.9808 6.2
    endloop
  endfacet
  facet normal -0 0 1
    outer loop
      vertex -30 0 6.2
      vertex -15 -25.9808 6.2
      vertex -15 25.9808 6.2
    endloop
  endfacet
  facet normal -0 0 1
    outer loop
      vertex -15 25.9808 6.2
      vertex 15 -25.9808 6.2
      vertex 15 25.9808 6.2
    endloop
  endfacet
  facet normal 0 0 1
    outer loop
      vertex -15 -25.9808 6.2
      vertex 15 -25.9808 6.2
      vertex -15 25.9808 6.2
    endloop
  endfacet
  facet normal 0.866026 0.499999 0
    outer loop
      vertex 15 25.9808 0
      vertex 30 0 6.2
      vertex 30 0 0
    endloop
  endfacet
  facet normal 0.866026 0.499999 -0
    outer loop
      vertex 15 25.9808 0
      vertex 15 25.9808 6.2
      vertex 30 0 6.2
    endloop
  endfacet
  facet normal 0 1 0
    outer loop
      vertex -15 25.9808 0
      vertex 15 25.9808 6.2
      vertex 15 25.9808 0
    endloop
  endfacet
  facet normal 0 1 0
    outer loop
      vertex -15 25.9808 0
      vertex -15 25.9808 6.2
      vertex 15 25.9808 6.2
    endloop
  endfacet
  facet normal -0.866026 0.499999 0
    outer loop
      vertex -30 0 0
      vertex -15 25.9808 6.2
      vertex -15 25.9808 0
    endloop
  endfacet
  facet normal -0.866026 0.499999 0
    outer loop
      vertex -30 0 0
      vertex -30 0 6.2
      vertex -15 25.9808 6.2
    endloop
  endfacet
  facet normal -0.866026 -0.499999 0
    outer loop
      vertex -15 -25.9808 0
      vertex -30 0 6.2
      vertex -30 0 0
    endloop
  endfacet
  facet normal -0.866026 -0.499999 0
    outer loop
      vertex -15 -25.9808 0
      vertex -15 -25.9808 6.2
      vertex -30 0 6.2
    endloop
  endfacet
  facet normal 0 -1 0
    outer loop
      vertex 15 -25.9808 0
      vertex -15 -25.9808 6.2
      vertex -15 -25.9808 0
    endloop
  endfacet
  facet normal 0 -1 0
    outer loop
      vertex 15 -25.9808 0
      vertex 15 -25.9808 6.2
      vertex -15 -25.9808 6.2
    endloop
  endfacet
  facet normal 0.866026 -0.499999 0
    outer loop
      vertex 30 0 0
      vertex 15 -25.9808 6.2
      vertex 15 -25.9808 0
    endloop
  endfacet
  facet normal 0.866026 -0.499999 0
    outer loop
      vertex 30 0 0
      vertex 30 0 6.2
      vertex 15 -25.9808 6.2
    endloop
  endfacet
endsolid OpenSCAD_Model
